<?xml version="1.0" encoding="utf-8"?>
<!-- Generator: Adobe Illustrator 27.9.0, SVG Export Plug-In . SVG Version: 6.00 Build 0)  -->
<svg version="1.1" xmlns="http://www.w3.org/2000/svg" xmlns:xlink="http://www.w3.org/1999/xlink" x="0px" y="0px"
	 viewBox="0 0 841.89 595.28" style="enable-background:new 0 0 841.89 595.28;" xml:space="preserve">
<style type="text/css">
	.st0{fill:#008BC2;}
	.st1{fill:#143652;}
	.st2{fill:#F2AF46;}
	.st3{fill:#49A0D7;}
</style>
<g id="tlo">
</g>
<g id="miarki">
	<g>
		<g>
			<path class="st0" d="M324.94,339.75l-2.46,1.57v-3.43l2.46-1.57v-8.25h4.4v6.45l2.91-1.86v3.43l-2.91,1.86v5.45h5.91v3.71h-10.3
				V339.75z"/>
			<path class="st0" d="M346.92,334.38h4.11v12.73h-1.14c-0.23,0.23-0.6,0.6-0.77,0.8c-0.34,0.4-0.54,0.86-0.54,1.26
				c0,0.34,0.14,0.63,0.34,0.8c0.23,0.2,0.51,0.29,0.83,0.29c0.43,0,0.97-0.17,1.43-0.43l-0.51,2.2c-0.69,0.4-1.34,0.48-1.88,0.48
				c-0.6,0-1.34-0.08-1.94-0.68c-0.43-0.43-0.66-1.03-0.66-1.6c0-0.51,0.17-1.11,0.6-1.74c0.29-0.43,0.8-0.97,1.23-1.37h-1.08v-1.66
				c-1.11,1.88-2.97,2.09-3.97,2.09c-1.91,0-3.34-0.63-4.57-1.94c-1.34-1.43-1.86-3.08-1.86-4.77c0-2.14,0.8-3.97,1.97-5.14
				c1.11-1.11,2.65-1.74,4.42-1.74c1.08,0,2.83,0.26,4,1.86V334.38z M341.7,338.41c-0.43,0.43-0.94,1.17-0.94,2.31
				c0,1.14,0.49,1.88,0.86,2.28c0.57,0.6,1.46,1,2.43,1c0.83,0,1.6-0.34,2.14-0.88c0.54-0.51,1-1.31,1-2.4
				c0-0.91-0.34-1.77-0.94-2.34c-0.63-0.6-1.54-0.88-2.28-0.88C343.07,337.5,342.24,337.87,341.7,338.41z"/>
			<path class="st0" d="M363.7,338.41c-1-0.83-2.03-0.97-2.68-0.97c-1.28,0-2.05,0.63-2.34,0.91c-0.54,0.54-0.94,1.37-0.94,2.4
				c0,0.94,0.34,1.74,0.86,2.28c0.63,0.69,1.57,1.03,2.48,1.03c0.71,0,1.68-0.2,2.63-1v3.71c-1.08,0.6-2.11,0.77-3.25,0.77
				c-2.14,0-3.77-0.77-4.94-1.91c-0.97-0.94-2-2.54-2-4.85c0-2.17,0.91-3.88,2.11-5.02c1.43-1.34,3.11-1.8,4.85-1.8
				c1.11,0,2.14,0.2,3.23,0.71V338.41z"/>
			<path class="st0" d="M372.06,343.69h6.02v3.43H365.1l6.62-9.31h-5.62v-3.43h12.56L372.06,343.69z"/>
			<path class="st0" d="M385.33,345.49l-6.08-11.1h4.74l3.6,6.91l3.51-6.91h4.62l-10.25,19.27h-4.62L385.33,345.49z"/>
			<path class="st0" d="M397.4,334.38h4.11v1.48c1.06-1.6,2.6-1.8,3.57-1.8c0.54,0,1.54,0.06,2.4,0.57c0.66,0.37,1.2,1,1.54,1.77
				c0.31-0.51,0.8-1.11,1.63-1.63c0.88-0.54,1.71-0.71,2.71-0.71c1.54,0,2.8,0.46,3.57,1.2c1.23,1.17,1.31,2.88,1.31,3.8v8.05h-4.11
				v-6.45c0-0.66,0-1.8-0.54-2.48c-0.34-0.43-0.88-0.68-1.48-0.68c-0.69,0-1.26,0.31-1.6,0.77c-0.54,0.69-0.63,1.68-0.63,2.51v6.34
				h-4.11v-6.62c0-0.86-0.03-1.86-0.66-2.48c-0.43-0.43-0.94-0.51-1.37-0.51c-0.54,0-1.03,0.14-1.43,0.51
				c-0.77,0.74-0.8,2.17-0.8,2.6v6.51h-4.11V334.38z"/>
			<path class="st0" d="M425.32,345.49l-6.08-11.1h4.74l3.6,6.91l3.51-6.91h4.62l-10.25,19.27h-4.62L425.32,345.49z"/>
			<path class="st0" d="M448.06,353.65h-4.11v-19.27h4.11v1.51c1.34-1.74,3-1.94,3.97-1.94c2.28,0,3.71,1,4.51,1.8
				c1.14,1.14,1.91,2.88,1.91,4.97c0,2.2-0.77,3.85-2.03,5.11c-1.26,1.26-2.63,1.71-4.31,1.71c-2.54,0-3.63-1.28-4.05-1.88V353.65z
				 M448.74,338.44c-0.66,0.66-0.97,1.57-0.97,2.34c0,0.8,0.31,1.63,0.91,2.25c0.6,0.6,1.46,0.97,2.34,0.97
				c0.77,0,1.6-0.31,2.2-0.88c0.66-0.63,1-1.6,1-2.43c0-0.94-0.4-1.77-0.97-2.31c-0.6-0.57-1.4-0.88-2.23-0.88
				C449.89,337.5,449.14,338.04,448.74,338.44z"/>
			<path class="st0" d="M473.35,345.49c-1.14,1.14-3.08,2.06-5.57,2.06c-2.48,0-4.42-0.91-5.57-2.06c-1.28-1.28-1.91-3.11-1.91-4.74
				c0-1.63,0.63-3.45,1.91-4.74c1.14-1.14,3.08-2.05,5.57-2.05c2.48,0,4.42,0.91,5.57,2.05c1.28,1.28,1.91,3.11,1.91,4.74
				C475.26,342.38,474.63,344.2,473.35,345.49z M465.47,338.35c-0.6,0.6-0.94,1.37-0.94,2.4c0,1.17,0.46,1.91,0.94,2.4
				c0.51,0.51,1.26,0.91,2.34,0.91c0.91,0,1.68-0.31,2.28-0.91c0.6-0.6,0.94-1.37,0.94-2.4c0-1.03-0.34-1.8-0.94-2.4
				c-0.6-0.6-1.37-0.91-2.31-0.91C466.84,337.44,466.07,337.75,465.47,338.35z"/>
			<path class="st0" d="M481.96,337.69v9.42h-4.11v-9.42h-1.43v-3.31h1.43v-4.11h4.11v4.11h2.54v3.31H481.96z"/>
			<path class="st0" d="M499.23,341.46h-9.51c0,0.68,0.26,1.6,0.77,2.17c0.63,0.69,1.48,0.8,2.11,0.8c0.6,0,1.23-0.11,1.66-0.37
				c0.06-0.03,0.54-0.34,0.89-1.06l3.88,0.4c-0.57,1.8-1.71,2.74-2.46,3.2c-1.23,0.74-2.6,0.94-4.02,0.94
				c-1.91,0-3.6-0.34-5.08-1.83c-1.11-1.11-1.91-2.8-1.91-4.91c0-1.83,0.66-3.71,1.94-5.02c1.54-1.54,3.45-1.83,4.88-1.83
				c1.43,0,3.48,0.26,5.05,1.91c1.51,1.6,1.8,3.6,1.8,5.17V341.46z M495.44,339.01c-0.03-0.11-0.23-0.91-0.83-1.48
				c-0.46-0.43-1.11-0.71-1.94-0.71c-1.06,0-1.68,0.43-2.08,0.83c-0.31,0.34-0.6,0.8-0.71,1.37H495.44z"/>
			<path class="st0" d="M501.71,334.38h4.11v1.51c1.26-1.6,2.74-1.86,3.94-1.86c1.11,0,2.57,0.2,3.65,1.28
				c1.2,1.2,1.28,2.71,1.28,3.74v8.05h-4.11v-6.54c0-0.83-0.03-1.88-0.68-2.54c-0.31-0.31-0.83-0.57-1.57-0.57
				c-0.86,0-1.4,0.34-1.71,0.68c-0.68,0.69-0.8,1.6-0.8,2.43v6.54h-4.11V334.38z"/>
			<path class="st0" d="M527.37,338.41c-1-0.83-2.03-0.97-2.68-0.97c-1.28,0-2.05,0.63-2.34,0.91c-0.54,0.54-0.94,1.37-0.94,2.4
				c0,0.94,0.34,1.74,0.86,2.28c0.63,0.69,1.57,1.03,2.48,1.03c0.71,0,1.68-0.2,2.63-1v3.71c-1.08,0.6-2.11,0.77-3.25,0.77
				c-2.14,0-3.77-0.77-4.94-1.91c-0.97-0.94-2-2.54-2-4.85c0-2.17,0.91-3.88,2.11-5.02c1.43-1.34,3.11-1.8,4.85-1.8
				c1.11,0,2.14,0.2,3.23,0.71V338.41z"/>
			<path class="st0" d="M532.36,326.56c1.34,0,2.4,1.06,2.4,2.4c0,1.34-1.06,2.4-2.4,2.4c-1.34,0-2.4-1.06-2.4-2.4
				C529.96,327.62,531.02,326.56,532.36,326.56z M534.42,334.38v19.27h-4.11v-19.27H534.42z"/>
			<path class="st0" d="M547.57,334.38h4.11v12.73h-4.11v-1.54c-1.11,1.71-2.71,1.97-3.77,1.97c-1.83,0-3.37-0.46-4.77-1.94
				c-1.34-1.43-1.85-3.08-1.85-4.77c0-2.14,0.8-3.97,1.97-5.14c1.11-1.11,2.65-1.74,4.42-1.74c1.08,0,2.83,0.26,4,1.86V334.38z
				 M542.35,338.41c-0.43,0.43-0.94,1.17-0.94,2.31c0,1.14,0.49,1.88,0.86,2.28c0.57,0.6,1.46,1,2.43,1c0.83,0,1.6-0.34,2.14-0.88
				c0.54-0.51,1-1.31,1-2.4c0-0.91-0.34-1.77-0.94-2.34c-0.63-0.6-1.54-0.88-2.28-0.88C543.72,337.5,542.89,337.87,542.35,338.41z"
				/>
			<path class="st0" d="M555.02,326.3h4.11v6.08l2.28-1.54v3.03l-2.28,1.54v11.7h-4.11v-9.79l-2.28,1.54v-3.03l2.28-1.54V326.3z"/>
			<path class="st0" d="M567.01,345.49l-6.08-11.1h4.74l3.6,6.91l3.51-6.91h4.62l-10.25,19.27h-4.62L567.01,345.49z"/>
			<path class="st0" d="M581.45,342.38c1.46,0,2.6,1.14,2.6,2.6c0,1.46-1.14,2.6-2.6,2.6c-1.46,0-2.6-1.14-2.6-2.6
				C578.85,343.52,579.99,342.38,581.45,342.38z M579.34,340.98v-12.9h4.22v12.9H579.34z"/>
		</g>
		<g>
			<path class="st1" d="M338.31,248.48h-9.44v5.64h8.74v5.68h-8.74v12.15h-6.73v-29.16h16.17V248.48z"/>
			<path class="st1" d="M347.67,252.45v10.75c0,0.87,0.09,2.23,1.09,3.15c0.44,0.39,1.22,0.92,2.62,0.92c1.18,0,2.1-0.39,2.67-0.92
				c0.92-0.87,1.05-2.19,1.05-3.15v-10.75h6.3v11.37c0,2.23-0.22,4.33-2.19,6.25c-2.23,2.19-5.51,2.54-7.83,2.54
				c-2.4,0-5.64-0.35-7.87-2.54c-1.79-1.75-2.14-3.72-2.14-5.86v-11.76H347.67z"/>
			<path class="st1" d="M365.6,252.45h6.3v2.32c1.92-2.45,4.2-2.84,6.03-2.84c1.71,0,3.93,0.31,5.6,1.97
				c1.84,1.84,1.97,4.15,1.97,5.73v12.33h-6.29v-10.01c0-1.27-0.04-2.89-1.05-3.89c-0.48-0.48-1.27-0.87-2.4-0.87
				c-1.31,0-2.14,0.52-2.62,1.05c-1.05,1.05-1.22,2.45-1.22,3.72v10.01h-6.3V252.45z"/>
			<path class="st1" d="M410.94,271.95h-6.29v-2.36c-0.96,1.4-2.71,3.02-6.16,3.02c-2.89,0-4.98-0.92-6.69-2.67
				c-2.01-2.01-3.06-4.81-3.06-7.83c0-3.24,1.18-5.9,3.06-7.69c1.71-1.62,4.11-2.62,6.78-2.62c2.14,0,4.5,0.7,6.08,2.84v-14.56h6.29
				V271.95z M396.73,258.53c-0.92,0.87-1.53,2.14-1.53,3.72c0,1.44,0.61,2.71,1.53,3.59c0.96,0.92,2.19,1.36,3.28,1.36
				c1.18,0,2.58-0.48,3.58-1.44c0.74-0.7,1.44-1.88,1.44-3.5c0-1.66-0.66-2.8-1.4-3.58c-1.01-1.05-2.19-1.44-3.54-1.44
				C398.83,257.22,397.74,257.57,396.73,258.53z"/>
			<path class="st1" d="M430.27,252.45h6.29v19.5h-6.29v-2.36c-1.71,2.62-4.15,3.02-5.77,3.02c-2.8,0-5.16-0.7-7.3-2.97
				c-2.05-2.19-2.84-4.72-2.84-7.3c0-3.28,1.22-6.08,3.02-7.87c1.71-1.71,4.07-2.67,6.78-2.67c1.66,0,4.33,0.39,6.12,2.84V252.45z
				 M422.27,258.62c-0.66,0.66-1.44,1.79-1.44,3.54c0,1.75,0.74,2.89,1.31,3.5c0.87,0.92,2.23,1.53,3.72,1.53
				c1.27,0,2.45-0.52,3.28-1.36c0.83-0.79,1.53-2.01,1.53-3.67c0-1.4-0.52-2.71-1.44-3.58c-0.96-0.92-2.36-1.36-3.5-1.36
				C424.37,257.22,423.1,257.79,422.27,258.62z"/>
			<path class="st1" d="M455.41,258.62c-1.53-1.27-3.1-1.49-4.11-1.49c-1.97,0-3.15,0.96-3.59,1.4c-0.83,0.83-1.44,2.1-1.44,3.67
				c0,1.44,0.52,2.67,1.31,3.5c0.96,1.05,2.4,1.57,3.8,1.57c1.09,0,2.58-0.31,4.02-1.53v5.68c-1.66,0.92-3.24,1.18-4.98,1.18
				c-3.28,0-5.77-1.18-7.56-2.93c-1.49-1.44-3.06-3.89-3.06-7.43c0-3.32,1.4-5.94,3.24-7.69c2.19-2.05,4.76-2.75,7.43-2.75
				c1.71,0,3.28,0.31,4.94,1.09V258.62z"/>
			<path class="st1" d="M462.5,240.48c2.05,0,3.67,1.62,3.67,3.67s-1.62,3.67-3.67,3.67c-2.05,0-3.67-1.62-3.67-3.67
				S460.44,240.48,462.5,240.48z M465.64,252.45v29.51h-6.29v-29.51H465.64z"/>
			<path class="st1" d="M485.23,252.45h6.29v19.5h-6.29v-2.36c-1.71,2.62-4.15,3.02-5.77,3.02c-2.8,0-5.16-0.7-7.3-2.97
				c-2.05-2.19-2.84-4.72-2.84-7.3c0-3.28,1.22-6.08,3.02-7.87c1.71-1.71,4.07-2.67,6.78-2.67c1.66,0,4.33,0.39,6.12,2.84V252.45z
				 M477.23,258.62c-0.66,0.66-1.44,1.79-1.44,3.54c0,1.75,0.74,2.89,1.31,3.5c0.87,0.92,2.23,1.53,3.72,1.53
				c1.27,0,2.45-0.52,3.28-1.36c0.83-0.79,1.53-2.01,1.53-3.67c0-1.4-0.52-2.71-1.44-3.58c-0.96-0.92-2.36-1.36-3.5-1.36
				C479.33,257.22,478.06,257.79,477.23,258.62z"/>
			<path class="st1" d="M505.21,252.45h6.3v2.32c1.92-2.45,4.2-2.84,6.03-2.84c1.71,0,3.93,0.31,5.6,1.97
				c1.84,1.84,1.97,4.15,1.97,5.73v12.33h-6.29v-10.01c0-1.27-0.04-2.89-1.05-3.89c-0.48-0.48-1.27-0.87-2.4-0.87
				c-1.31,0-2.14,0.52-2.62,1.05c-1.05,1.05-1.22,2.45-1.22,3.72v10.01h-6.3V252.45z"/>
			<path class="st1" d="M544.26,252.45h6.29v19.5h-6.29v-2.36c-1.71,2.62-4.15,3.02-5.77,3.02c-2.8,0-5.16-0.7-7.3-2.97
				c-2.05-2.19-2.84-4.72-2.84-7.3c0-3.28,1.22-6.08,3.02-7.87c1.71-1.71,4.07-2.67,6.78-2.67c1.66,0,4.33,0.39,6.12,2.84V252.45z
				 M536.26,258.62c-0.66,0.66-1.44,1.79-1.44,3.54c0,1.75,0.74,2.89,1.31,3.5c0.87,0.92,2.23,1.53,3.72,1.53
				c1.27,0,2.45-0.52,3.28-1.36c0.83-0.79,1.53-2.01,1.53-3.67c0-1.4-0.52-2.71-1.44-3.58c-0.96-0.92-2.36-1.36-3.5-1.36
				C538.35,257.22,537.09,257.79,536.26,258.62z"/>
			<path class="st1" d="M564.24,252.45h6.3v3.06c0.57-1.09,1.44-2.1,2.45-2.71c1.05-0.66,2.14-0.83,3.37-0.83
				c0.79,0,1.36,0.09,2.05,0.31l-0.35,5.9c-0.83-0.44-1.75-0.7-2.84-0.7c-1.36,0-2.36,0.48-3.15,1.31c-1.4,1.49-1.53,3.59-1.53,5.25
				v7.91h-6.3V252.45z"/>
			<path class="st1" d="M589.07,266.7h9.22v5.25h-19.89l10.14-14.25h-8.61v-5.25h19.23L589.07,266.7z"/>
			<path class="st1" d="M621.43,263.29h-14.56c0,1.05,0.39,2.45,1.18,3.32c0.96,1.05,2.27,1.22,3.23,1.22
				c0.92,0,1.88-0.17,2.54-0.57c0.09-0.04,0.83-0.52,1.36-1.62l5.95,0.61c-0.87,2.75-2.62,4.2-3.76,4.9
				c-1.88,1.14-3.98,1.44-6.16,1.44c-2.93,0-5.51-0.52-7.78-2.8c-1.71-1.71-2.93-4.28-2.93-7.52c0-2.8,1.01-5.68,2.97-7.69
				c2.36-2.36,5.29-2.8,7.47-2.8c2.19,0,5.33,0.39,7.74,2.93c2.32,2.45,2.75,5.51,2.75,7.91V263.29z M615.61,259.53
				c-0.04-0.17-0.35-1.4-1.27-2.27c-0.7-0.66-1.71-1.09-2.97-1.09c-1.62,0-2.58,0.66-3.19,1.27c-0.48,0.52-0.92,1.22-1.09,2.1
				H615.61z"/>
			<path class="st1" d="M639.31,258.62c-1.53-1.27-3.1-1.49-4.11-1.49c-1.97,0-3.15,0.96-3.59,1.4c-0.83,0.83-1.44,2.1-1.44,3.67
				c0,1.44,0.52,2.67,1.31,3.5c0.96,1.05,2.4,1.57,3.8,1.57c1.09,0,2.58-0.31,4.02-1.53v5.68c-1.66,0.92-3.24,1.18-4.98,1.18
				c-3.28,0-5.77-1.18-7.56-2.93c-1.49-1.44-3.06-3.89-3.06-7.43c0-3.32,1.4-5.94,3.24-7.69c2.19-2.05,4.76-2.75,7.43-2.75
				c1.71,0,3.28,0.31,4.94,1.09V258.62z"/>
			<path class="st1" d="M651.56,266.7h9.22v5.25h-19.89l10.14-14.25h-8.61v-5.25h19.23L651.56,266.7z"/>
			<path class="st1" d="M343.21,312.68c-2.58,1.31-4.68,1.57-6.43,1.57c-5.38,0-9-1.84-11.45-4.24c-2.62-2.54-4.55-6.38-4.55-11.06
				c0-4.59,1.92-8.44,4.55-10.97c2.58-2.49,6.34-4.2,10.89-4.2c1.92,0,4.15,0.39,6.99,1.62v7.78c-1.49-1.57-3.72-3.1-6.82-3.1
				c-2.45,0-4.42,0.79-5.95,2.27c-1.62,1.57-2.75,3.93-2.75,6.73c0,3.02,1.22,5.16,2.54,6.43c0.61,0.61,2.71,2.45,6.29,2.45
				c1.75,0,4.11-0.48,6.69-3.02V312.68z"/>
			<path class="st1" d="M366.17,311.1c-1.75,1.75-4.72,3.15-8.52,3.15c-3.8,0-6.78-1.4-8.52-3.15c-1.97-1.97-2.93-4.76-2.93-7.26
				c0-2.49,0.96-5.29,2.93-7.26c1.75-1.75,4.72-3.15,8.52-3.15c3.8,0,6.78,1.4,8.52,3.15c1.97,1.97,2.93,4.76,2.93,7.26
				C369.1,306.34,368.13,309.13,366.17,311.1z M354.1,300.17c-0.92,0.92-1.44,2.1-1.44,3.67c0,1.79,0.7,2.93,1.44,3.67
				c0.79,0.79,1.92,1.4,3.59,1.4c1.4,0,2.58-0.48,3.5-1.4c0.92-0.92,1.44-2.1,1.44-3.67s-0.52-2.75-1.44-3.67
				c-0.92-0.92-2.1-1.4-3.54-1.4S355.02,299.25,354.1,300.17z"/>
			<path class="st1" d="M378.81,281.72v31.87h-6.3v-31.87H378.81z"/>
			<path class="st1" d="M389.65,281.72v31.87h-6.3v-31.87H389.65z"/>
			<path class="st1" d="M414,304.94h-14.56c0,1.05,0.39,2.45,1.18,3.32c0.96,1.05,2.27,1.22,3.23,1.22c0.92,0,1.88-0.17,2.54-0.57
				c0.09-0.04,0.83-0.52,1.36-1.62l5.95,0.61c-0.87,2.75-2.62,4.2-3.76,4.9c-1.88,1.14-3.98,1.44-6.16,1.44
				c-2.93,0-5.51-0.52-7.78-2.8c-1.71-1.71-2.93-4.28-2.93-7.52c0-2.8,1.01-5.68,2.97-7.69c2.36-2.36,5.29-2.8,7.47-2.8
				c2.19,0,5.33,0.39,7.74,2.93c2.32,2.45,2.75,5.51,2.75,7.91V304.94z M408.19,301.18c-0.04-0.17-0.35-1.4-1.27-2.27
				c-0.7-0.66-1.71-1.09-2.97-1.09c-1.62,0-2.58,0.66-3.19,1.27c-0.48,0.52-0.92,1.22-1.09,2.1H408.19z"/>
			<path class="st1" d="M432.06,294.1h6.29v18.32c0,2.75-0.13,5.86-2.4,8.31c-2.4,2.58-6.08,2.89-8.22,2.89
				c-2.58,0-5.68-0.39-8.13-2.49c-1.22-1.05-2.49-2.71-2.93-5.16h6.86c0.26,1.01,0.87,1.57,1.4,1.92c0.74,0.48,1.79,0.66,2.71,0.66
				c1.79,0,2.71-0.66,3.15-1.05c1.22-1.18,1.27-3.24,1.27-4.07v-2.23c-0.74,1.22-2.23,2.93-5.81,2.93c-3.02,0-5.33-0.96-7.13-2.75
				c-1.57-1.62-2.84-3.98-2.84-7.34c0-3.32,1.22-6.08,2.89-7.78c1.18-1.22,3.45-2.8,7.08-2.8c3.54,0,5.11,1.88,5.81,2.93V294.1z
				 M424.24,300.17c-0.96,0.92-1.49,2.45-1.49,3.63c0,1.27,0.48,2.58,1.36,3.5c0.87,0.92,2.05,1.4,3.54,1.4
				c1.66,0,2.75-0.66,3.41-1.27c0.96-0.92,1.53-2.27,1.53-3.72c0-1.53-0.66-2.8-1.49-3.59c-0.92-0.83-2.27-1.22-3.41-1.22
				C426.29,298.9,425.02,299.43,424.24,300.17z"/>
			<path class="st1" d="M446.14,282.12c2.05,0,3.67,1.62,3.67,3.67c0,2.05-1.62,3.67-3.67,3.67c-2.05,0-3.67-1.62-3.67-3.67
				C442.47,283.74,444.09,282.12,446.14,282.12z M449.29,294.1v19.5h-6.29v-19.5H449.29z"/>
			<path class="st1" d="M460.22,294.1v10.75c0,0.87,0.09,2.23,1.09,3.15c0.44,0.39,1.22,0.92,2.62,0.92c1.18,0,2.1-0.39,2.67-0.92
				c0.92-0.87,1.05-2.19,1.05-3.15V294.1h6.3v11.37c0,2.23-0.22,4.33-2.19,6.25c-2.23,2.19-5.51,2.54-7.83,2.54
				c-2.4,0-5.64-0.35-7.87-2.54c-1.79-1.75-2.14-3.72-2.14-5.86V294.1H460.22z"/>
			<path class="st1" d="M478.15,294.1h6.3v2.27c1.62-2.45,3.98-2.75,5.46-2.75c0.83,0,2.36,0.09,3.67,0.87
				c1.01,0.57,1.84,1.53,2.36,2.71c0.48-0.79,1.22-1.71,2.49-2.49c1.36-0.83,2.62-1.09,4.15-1.09c2.36,0,4.28,0.7,5.46,1.84
				c1.88,1.79,2.01,4.42,2.01,5.81v12.33h-6.29v-9.88c0-1.01,0-2.75-0.83-3.8c-0.52-0.66-1.36-1.05-2.27-1.05
				c-1.05,0-1.92,0.48-2.45,1.18c-0.83,1.05-0.96,2.58-0.96,3.85v9.71h-6.3v-10.14c0-1.31-0.04-2.84-1.01-3.8
				c-0.66-0.66-1.44-0.79-2.1-0.79c-0.83,0-1.57,0.22-2.19,0.79c-1.18,1.14-1.22,3.32-1.22,3.98v9.97h-6.3V294.1z"/>
			<path class="st1" d="M534.81,284.43c2.54,0,5.33,0.35,7.65,2.4c2.49,2.19,2.84,5.07,2.84,7.08c0,3.67-1.4,5.73-2.49,6.86
				c-2.32,2.36-5.38,2.58-7.43,2.58h-4.11v10.23h-6.73v-29.16H534.81z M531.27,297.86h2.4c0.92,0,2.54-0.04,3.63-1.09
				c0.61-0.61,1.09-1.62,1.09-2.89c0-1.22-0.44-2.23-1.09-2.84c-1.01-0.96-2.45-1.09-3.76-1.09h-2.27V297.86z"/>
			<path class="st1" d="M567.12,311.1c-1.75,1.75-4.72,3.15-8.52,3.15c-3.8,0-6.78-1.4-8.52-3.15c-1.97-1.97-2.93-4.76-2.93-7.26
				c0-2.49,0.96-5.29,2.93-7.26c1.75-1.75,4.72-3.15,8.52-3.15c3.8,0,6.78,1.4,8.52,3.15c1.97,1.97,2.93,4.76,2.93,7.26
				C570.05,306.34,569.09,309.13,567.12,311.1z M555.06,300.17c-0.92,0.92-1.44,2.1-1.44,3.67c0,1.79,0.7,2.93,1.44,3.67
				c0.79,0.79,1.92,1.4,3.59,1.4c1.4,0,2.58-0.48,3.5-1.4c0.92-0.92,1.44-2.1,1.44-3.67s-0.52-2.75-1.44-3.67
				c-0.92-0.92-2.1-1.4-3.54-1.4S555.98,299.25,555.06,300.17z"/>
			<path class="st1" d="M579.76,281.72v31.87h-6.3v-31.87H579.76z"/>
			<path class="st1" d="M603.15,311.1c-1.75,1.75-4.72,3.15-8.52,3.15c-3.8,0-6.78-1.4-8.52-3.15c-1.97-1.97-2.93-4.76-2.93-7.26
				c0-2.49,0.96-5.29,2.93-7.26c1.75-1.75,4.72-3.15,8.52-3.15c3.8,0,6.78,1.4,8.52,3.15c1.97,1.97,2.93,4.76,2.93,7.26
				C606.08,306.34,605.12,309.13,603.15,311.1z M591.09,300.17c-0.92,0.92-1.44,2.1-1.44,3.67c0,1.79,0.7,2.93,1.44,3.67
				c0.79,0.79,1.92,1.4,3.59,1.4c1.4,0,2.58-0.48,3.5-1.4c0.92-0.92,1.44-2.1,1.44-3.67s-0.52-2.75-1.44-3.67
				c-0.92-0.92-2.1-1.4-3.54-1.4C593.19,298.77,592.01,299.25,591.09,300.17z"/>
			<path class="st1" d="M609.32,294.1h6.3v2.32c1.92-2.45,4.2-2.84,6.03-2.84c1.71,0,3.93,0.31,5.6,1.97
				c1.84,1.84,1.97,4.15,1.97,5.73v12.33h-6.29v-10.01c0-1.27-0.04-2.89-1.05-3.89c-0.48-0.48-1.27-0.87-2.4-0.87
				c-1.31,0-2.14,0.52-2.62,1.05c-1.05,1.05-1.22,2.45-1.22,3.72v10.01h-6.3V294.1z"/>
			<path class="st1" d="M637,282.12c2.05,0,3.67,1.62,3.67,3.67c0,2.05-1.62,3.67-3.67,3.67c-2.05,0-3.67-1.62-3.67-3.67
				C633.33,283.74,634.94,282.12,637,282.12z M640.15,294.1v19.5h-6.29v-19.5H640.15z"/>
			<path class="st1" d="M659.43,300.26c-1.53-1.27-3.1-1.49-4.11-1.49c-1.97,0-3.15,0.96-3.59,1.4c-0.83,0.83-1.44,2.1-1.44,3.67
				c0,1.44,0.52,2.67,1.31,3.5c0.96,1.05,2.4,1.57,3.8,1.57c1.09,0,2.58-0.31,4.02-1.53v5.68c-1.66,0.92-3.24,1.18-4.98,1.18
				c-3.28,0-5.77-1.18-7.56-2.93c-1.49-1.44-3.06-3.89-3.06-7.43c0-3.32,1.4-5.94,3.24-7.69c2.19-2.05,4.76-2.75,7.43-2.75
				c1.71,0,3.28,0.31,4.94,1.09V300.26z"/>
			<path class="st1" d="M669.22,294.1v10.75c0,0.87,0.09,2.23,1.09,3.15c0.44,0.39,1.22,0.92,2.62,0.92c1.18,0,2.1-0.39,2.67-0.92
				c0.92-0.87,1.05-2.19,1.05-3.15V294.1h6.3v11.37c0,2.23-0.22,4.33-2.19,6.25c-2.23,2.19-5.51,2.54-7.83,2.54
				c-2.4,0-5.64-0.35-7.87-2.54c-1.79-1.75-2.14-3.72-2.14-5.86V294.1H669.22z"/>
			<path class="st1" d="M687.15,294.1h6.3v2.27c1.62-2.45,3.98-2.75,5.46-2.75c0.83,0,2.36,0.09,3.67,0.87
				c1.01,0.57,1.84,1.53,2.36,2.71c0.48-0.79,1.22-1.71,2.49-2.49c1.36-0.83,2.62-1.09,4.15-1.09c2.36,0,4.28,0.7,5.46,1.84
				c1.88,1.79,2.01,4.42,2.01,5.81v12.33h-6.29v-9.88c0-1.01,0-2.75-0.83-3.8c-0.52-0.66-1.36-1.05-2.27-1.05
				c-1.05,0-1.92,0.48-2.45,1.18c-0.83,1.05-0.96,2.58-0.96,3.85v9.71h-6.3v-10.14c0-1.31-0.04-2.84-1.01-3.8
				c-0.66-0.66-1.44-0.79-2.1-0.79c-0.83,0-1.57,0.22-2.19,0.79c-1.18,1.14-1.22,3.32-1.22,3.98v9.97h-6.3V294.1z"/>
		</g>
		<g>
			<path class="st1" d="M185.76,263.94c-3.76,5.31-9.96,8.78-16.97,8.78c-10,0-18.37-7.09-20.35-16.5h-26.49
				c2.18,23.93,22.35,42.74,46.84,42.74c11.62,0,22.26-4.23,30.47-11.23C192.63,281.41,187.83,273.19,185.76,263.94z"/>
			<circle class="st2" cx="168.8" cy="253.19" r="13.12"/>
			<path class="st2" d="M236.58,300.78c-11.45,0-21.96,4.12-30.13,10.94c6.51,6.63,11.07,15.16,12.75,24.67
				c3.72-5.64,10.12-9.38,17.37-9.38c11.42,0,20.71,9.25,20.8,20.64h26.23C283.53,321.79,262.47,300.78,236.58,300.78z"/>
			<path class="st0" d="M256.93,256.22c-1.98,9.41-10.35,16.5-20.35,16.5s-18.37-7.09-20.35-16.5h-26.49
				c2.17,23.93,22.35,42.74,46.84,42.74s44.66-18.81,46.84-42.74H256.93z"/>
			<circle class="st2" cx="236.58" cy="253.19" r="13.12"/>
			<path class="st3" d="M168.79,300.78c-25.88,0-46.94,21.01-47.02,46.88H148c0.08-11.4,9.38-20.64,20.79-20.64
				c11.42,0,20.72,9.25,20.8,20.64h26.23C215.75,321.79,194.68,300.78,168.79,300.78z"/>
		</g>
	</g>
</g>
<g id="Warstwa_3">
</g>
<g id="Warstwa_6">
</g>
<g id="Warstwa_4">
</g>
<g id="Warstwa_5">
</g>
</svg>
